<svg xmlns="http://www.w3.org/2000/svg" width="631.269" height="194.254" viewBox="0 0 631.269 194.254">
  <g id="Group_43345" data-name="Group 43345" transform="translate(0)">
    <path id="Path_48740" data-name="Path 48740" d="M14913.747-730.616h26.017l6.415,22.455h34.929V-680h-31.365s.2,48.768,0,68.565c.944,10.186,5.836,14.726,11.813,16.977a126.561,126.561,0,0,0,19.553,0v27.2h-39.367a35.087,35.087,0,0,1-19.407-10.919,32.549,32.549,0,0,1-8.137-21.247Z" transform="translate(-14913.747 758.754)" fill="#fd0bb5"/>
    <path id="Subtraction_3" data-name="Subtraction 3" d="M49.435,140.658a75.449,75.449,0,0,1-14.286-1.38,50.7,50.7,0,0,1-19.569-7.831,36.024,36.024,0,0,1-10.3-10.905A31.926,31.926,0,0,1,.594,106.67,57.8,57.8,0,0,1,.106,94.705,49.348,49.348,0,0,1,1.961,83.673a32.685,32.685,0,0,1,5.444-10.91,35,35,0,0,1,9.4-8.145,56.377,56.377,0,0,1,10.556-4.953,67.781,67.781,0,0,1,12.17-3.125A163.15,163.15,0,0,1,62.209,54.96c12.525,0,27.782,2.406,27.935,2.43V42.844a12.314,12.314,0,0,0-2.617-6.412C85.208,33.38,80.3,29.5,70.091,28.365a73.816,73.816,0,0,0-8.037-.388c-20.43,0-50.637,6-50.942,6.058V6.292l.026-.007c.737-.167,7.483-1.673,16.923-3.139A249.523,249.523,0,0,1,64.806,0C77.02,0,87.119,1.353,94.823,4.02a48.709,48.709,0,0,1,17.12,9.888A39.715,39.715,0,0,1,120.821,25.7a36.375,36.375,0,0,1,3.854,14.012v100.5H105.128L91.966,127.247l-.006.006a61,61,0,0,1-11.62,6.7,76.209,76.209,0,0,1-13.415,4.61A74.406,74.406,0,0,1,49.435,140.658Zm15.7-62.427a97.431,97.431,0,0,0-14.233,1.1,32.442,32.442,0,0,0-5.666,2.1c-2.764,1.332-6.4,3.626-8.019,6.993-3.089,6.409-1.2,15.49-1.178,15.581a11.642,11.642,0,0,0,3.224,5.573c2.525,2.57,7.539,5.686,17.094,5.936.4.011.813.017,1.214.017a56.028,56.028,0,0,0,22.66-5.2,55.326,55.326,0,0,0,9.219-5.2l0-23.527a117.955,117.955,0,0,0-17.887-3.088C69.575,78.328,67.41,78.231,65.137,78.231Z" transform="translate(85.467 51.248)" fill="#5f5aff"/>
    <path id="Subtraction_2" data-name="Subtraction 2" d="M50.2,192.816a220.51,220.51,0,0,1-35.2-3.051C5.962,188.265.058,186.729,0,186.714V0H35.641V62.238l.02-.013a100.418,100.418,0,0,1,12.871-5.478,104.883,104.883,0,0,1,13.489-3.775A78.793,78.793,0,0,1,77.87,51.255c13.724,0,25.051,4.283,33.668,12.729a56.282,56.282,0,0,1,12.553,19.671c3.5,8.831,5.809,19.557,6.857,31.883,1.134,12.264.353,23.253-2.324,32.66a54.862,54.862,0,0,1-12.14,22.235c-7.4,8.111-17.592,14.106-30.312,17.819C75.8,191.28,63.7,192.816,50.2,192.816ZM64.489,79.885a57.432,57.432,0,0,0-9.789.772A68.785,68.785,0,0,0,35.51,87.62v71.287c.128.047,13.081,4.814,26.57,4.814a39.81,39.81,0,0,0,14.765-2.5c8.715-3.486,13.3-10.641,15.608-16.029A39.355,39.355,0,0,0,95.4,134.228l0-.009c.09-.651.895-6.569,1.138-13.949.235-7.131-.03-17.084-2.619-24.006A24.344,24.344,0,0,0,82.771,83.439a25.36,25.36,0,0,0-7.4-2.782A76.269,76.269,0,0,0,64.489,79.885Z" transform="translate(244.572 0)" fill="#5f5aff"/>
    <path id="Subtraction_1" data-name="Subtraction 1" d="M66.561,143.381l-.2,0a74.691,74.691,0,0,1-16.864-2.524,76.541,76.541,0,0,1-15.8-6,63.119,63.119,0,0,1-16.019-11.684c-12.712-12.884-19-31.037-18.688-53.956A99.747,99.747,0,0,1,1.652,46.9,69.017,69.017,0,0,1,8.2,29.876,56.411,56.411,0,0,1,28.342,8.841,67.953,67.953,0,0,1,50.238.4,73.9,73.9,0,0,1,64.707-1.14c1.055,0,1.647.034,1.652.034s.956-.07,2.581-.07c6.236,0,22.345,1,37.22,10.27a57.621,57.621,0,0,1,20.02,21.082,71.6,71.6,0,0,1,6.673,16.932A102.826,102.826,0,0,1,135.9,69.216c.795,22.587-5.068,40.529-17.426,53.33a62.021,62.021,0,0,1-16.017,11.843A77.884,77.884,0,0,1,86.17,140.6a82.445,82.445,0,0,1-19.607,2.784h0ZM68,28.626a66.505,66.505,0,0,0-8.093.482H59.9c-7.187,1.357-29.058,5.484-29.651,41.883-.469,28.85,13.66,38.207,25.6,40.976A50.3,50.3,0,0,0,66.663,113a60.667,60.667,0,0,0,10.524-.85c10.613-1.943,28.265-10,27.243-42.136-.779-24.482-10.444-38.625-27.951-40.9A77.194,77.194,0,0,0,68,28.626Z" transform="translate(398.522 50.873)" fill="#5f5aff"/>
    <path id="Path_48747" data-name="Path 48747" d="M15371.378-712.039h21.411l5.152,16.053s10.242-8.412,21.422-12.366a56.617,56.617,0,0,1,22.145-2.807V-687s-11.914.211-22.145,4.64-17.234,13.076-17.234,13.076V-571h-31.019Z" transform="translate(-14810.239 762.914)" fill="#5f5aff"/>
  </g>
</svg>
