<svg xmlns="http://www.w3.org/2000/svg" width="16.538" height="22.051" viewBox="0 0 16.538 22.051">
  <g id="svgexport-17_50_" data-name="svgexport-17 (50)" transform="translate(-5 -1)">
    <path id="Path_81849" data-name="Path 81849" d="M13.269,1a6.176,6.176,0,0,0-6.2,6.2V9.958A2.03,2.03,0,0,0,5,12.025v8.958a2.03,2.03,0,0,0,2.067,2.067h12.4a2.03,2.03,0,0,0,2.067-2.067V12.025a2.03,2.03,0,0,0-2.067-2.067V7.2A6.176,6.176,0,0,0,13.269,1ZM20.16,12.025v8.958a.651.651,0,0,1-.689.689H7.067a.651.651,0,0,1-.689-.689V12.025a.651.651,0,0,1,.689-.689h12.4A.651.651,0,0,1,20.16,12.025ZM8.445,9.958V7.2a4.824,4.824,0,0,1,9.647,0V9.958Z" fill="#fd0bb5"/>
    <path id="Path_81850" data-name="Path 81850" d="M16.067,19A2.03,2.03,0,0,0,14,21.067,2.007,2.007,0,0,0,15.378,23v1.516a.689.689,0,0,0,1.378,0V23a2.007,2.007,0,0,0,1.378-1.929A2.03,2.03,0,0,0,16.067,19Zm0,2.756a.689.689,0,1,1,.689-.689A.651.651,0,0,1,16.067,21.756Z" transform="translate(-2.798 -5.596)" fill="#fd0bb5"/>
  </g>
</svg>
