<svg xmlns="http://www.w3.org/2000/svg" width="635.696" height="192.385" viewBox="0 0 635.696 192.385">
  <g id="Group_43350" data-name="Group 43350" transform="translate(-11.648 -244.517)">
    <path id="Subtraction_4" data-name="Subtraction 4" d="M230.407,614.181h0a32.89,32.89,0,0,1-8.167-1.123,15.979,15.979,0,0,1-6.949-3.729,19.6,19.6,0,0,1-4.083-5.388,24.521,24.521,0,0,1-2.413-6.951,19.836,19.836,0,0,0,3.83-2.081,22.49,22.49,0,0,0,6.809-7.246c3.924-6.8,5.234-18.1,5.247-18.218H208.795a42.878,42.878,0,0,1-12.1-2.769,74.221,74.221,0,0,1-11.076-6.012,20.787,20.787,0,0,1-3.047-2.131,36.843,36.843,0,0,1-6.627-7.16,45.726,45.726,0,0,1-6.436-13.335,64.519,64.519,0,0,1-2.473-20.659,73.87,73.87,0,0,1,3.334-20.5,48.914,48.914,0,0,1,6.34-12.982c4.469-6.377,8.865-8.754,8.909-8.777a41.613,41.613,0,0,1,8.269-4.56,56.165,56.165,0,0,1,9.693-3.135A58.2,58.2,0,0,1,216.412,466c.712,0,1.435.013,2.148.039a67.682,67.682,0,0,1,13.174,1.726,52.268,52.268,0,0,1,9.232,3.087,30.487,30.487,0,0,1,7.213,4.267,22.851,22.851,0,0,1,2.76,2.461,17.821,17.821,0,0,1,4.053,6.248,40.088,40.088,0,0,1,1.738,11v46.06c.011.295,1.059,29.581,0,36.284a101.113,101.113,0,0,1-1.948,11.813,51.274,51.274,0,0,1-3.113,10.244c-3.086,5.988-4.932,7.833-8.407,10.616A19.752,19.752,0,0,1,230.407,614.181Zm-11.9-123a28.59,28.59,0,0,0-4.575.366,19.245,19.245,0,0,0-8.2,3.288,12.169,12.169,0,0,0-2.552,2.368,16.784,16.784,0,0,0-2.433,3.682,31.03,31.03,0,0,0-3.134,11.358,63.766,63.766,0,0,0,1.458,19.383,19.952,19.952,0,0,0,1.867,4.514,16.5,16.5,0,0,0,7.169,7c3.733,1.751,8.912,2.119,12.6,2.119a58.177,58.177,0,0,0,6.638-.37V492.566A27.367,27.367,0,0,0,218.511,491.179Z" transform="translate(-91.593 -177.906)" fill="#5f5aff"/>
    <path id="Path_48767" data-name="Path 48767" d="M256.322,304.789s14.021,5.305,14.4,30.315-10.989,28.61-10.989,28.61H158.367v27.947s104.291.157,107.936,0a36.622,36.622,0,0,0,6.561-.886s19.53-2.623,31.015-36.345c7.768-35.052-6.063-59.114-6.063-59.114s-11.273-14.684-27.094-9.189S256.322,304.789,256.322,304.789Z" fill="#5f5aff"/>
    <circle id="Ellipse_5" data-name="Ellipse 5" cx="15.5" cy="15.5" r="15.5" transform="translate(262.287 405.902)" fill="#5f5aff"/>
    <path id="Subtraction_5" data-name="Subtraction 5" d="M-63.224-338.6l-233.155-.328c-.029,0-.715.047-1.87.047a55.725,55.725,0,0,1-15.694-2.308c-8.2-2.486-14.62-6.751-19.091-12.678a49.145,49.145,0,0,1-6.882-12.748,57.514,57.514,0,0,1-2.92-11.846,53.609,53.609,0,0,1-.4-12.133v-58.3a15.663,15.663,0,0,0-3.316-9.329,13.453,13.453,0,0,0-8.162-5.392h0v-.005a31.287,31.287,0,0,1,3.608-11.181,22.036,22.036,0,0,1,7-7.721A22.793,22.793,0,0,1-331.43-486.1h.206a23.021,23.021,0,0,1,12.731,3.513,23.4,23.4,0,0,1,7.3,7.728,32.609,32.609,0,0,1,4.1,11.241v77.572a46.119,46.119,0,0,0,.357,5.136,20.638,20.638,0,0,0,1.529,5.258,9.64,9.64,0,0,0,5.174,4.959c2.9,1.3,7.393,1.5,9.812,1.5.96,0,1.581-.031,1.587-.032l112.572-.484v-80.371a19.125,19.125,0,0,0-3.2-8.325,13.923,13.923,0,0,0-7.332-5.443,26.833,26.833,0,0,1,3-10.72,20.21,20.21,0,0,1,6.744-7.488,24.275,24.275,0,0,1,12.9-3.652c.237-.006.476-.009.71-.009a20.621,20.621,0,0,1,12.66,3.937,23.179,23.179,0,0,1,6.868,8.662,37.547,37.547,0,0,1,3.387,12.6v39.133l0-.009a68.926,68.926,0,0,1,13.733-13.293,69.608,69.608,0,0,1,16.531-9.145,62.413,62.413,0,0,1,22.4-4.157c.276,0,.543,0,.818.005a61.649,61.649,0,0,1,22.2,4.341,61.443,61.443,0,0,1,15.586,9.123,63.183,63.183,0,0,1,9.191,9.041,40.026,40.026,0,0,1,3.015,4.095,52.584,52.584,0,0,1,6.613,14.1,61.658,61.658,0,0,1,2.764,15.873,63.388,63.388,0,0,1-2.49,20.2,50.293,50.293,0,0,1-8.764,17.454,42.808,42.808,0,0,1-11.039,9.836,42.117,42.117,0,0,1-9.454,4.344A27.281,27.281,0,0,1-63.224-338.6Zm-30.247-81.028a43.552,43.552,0,0,0-22.624,6.36c-10.962,6.557-18.517,16.923-22.925,24.465a86.518,86.518,0,0,0-7.01,14.944v10.8h56.106A46.446,46.446,0,0,0-76.5-365.656c6.343-2.286,14.32-7.111,16.3-17.114,2.447-11.94-1.8-20.268-5.8-25.152a32.193,32.193,0,0,0-9.355-7.815,32.692,32.692,0,0,0-5.051-1.949A45.363,45.363,0,0,0-93.471-419.633Z" transform="translate(674.76 730.615)" fill="#fd0bb5"/>
    <path id="Path_48769" data-name="Path 48769" d="M439.422,362.912v30.776h-61.04s-24.121,1.676-36.655-14.939-10.2-36.728-10.2-36.728v-58.3a15.531,15.531,0,0,0-3.316-9.328A13.332,13.332,0,0,0,320.047,269s1.858-22.335,23.283-22.481S367.669,269,367.669,269v77.573a45.869,45.869,0,0,0,.357,5.136,20.431,20.431,0,0,0,1.53,5.258,9.547,9.547,0,0,0,5.174,4.959c4.1,1.845,11.4,1.468,11.4,1.468Z" transform="translate(0 -2.005)" fill="#5f5aff"/>
    <path id="Path_48772" data-name="Path 48772" d="M2429.526,796.166v79.941s.765,17.927-6.085,31.189-16.178,13.846-16.178,13.846-8.016,2.332-15.157-1.895-8.745-13.481-8.745-13.481,8.089-3.48,11.951-14.574,3.061-28.274,3.061-28.274V796.166s-.547-7.189,1.3-11.819a13.76,13.76,0,0,1,6.1-6.7s2.189-1.725,8.027-1.658,8.027,1.658,8.027,1.658a12.5,12.5,0,0,1,6.368,6.368C2430.126,788.645,2429.526,796.166,2429.526,796.166Z" transform="translate(-2371.713 -486.098)" fill="#5f5aff"/>
  </g>
</svg>
